<svg width="17" height="17" viewBox="0 0 17 17" fill="none" xmlns="http://www.w3.org/2000/svg">
<g clip-path="url(#clip0_0_10592)">
<path d="M1 5.5V9.57175C1 12.6017 1 14.1168 1.97725 15.0588C2.95375 16 4.525 16 7.6675 16H9.33325C12.4758 16 14.047 16 15.0235 15.0588C16 14.1168 16 12.6017 16 9.57175V5.5M1 5.5H16M1 5.5L1.7215 3.769C2.28025 2.4265 2.56 1.756 3.127 1.378C3.694 1 4.42 1 5.875 1H11.125C12.5793 1 13.306 1 13.873 1.378C14.44 1.756 14.7198 2.42725 15.2785 3.769L16 5.5M8.5 5.5V1M7 8.5H10" stroke="black" stroke-width="1.4" stroke-linecap="round" stroke-linejoin="round"/>
</g>
<defs>
<clipPath id="clip0_0_10592">
<rect width="17" height="17" fill="white"/>
</clipPath>
</defs>
</svg>
