<svg width="22" height="20" viewBox="0 0 22 20" fill="none" xmlns="http://www.w3.org/2000/svg">
<path d="M2.4502 8.18726V17.1075C2.4502 17.3801 2.55728 17.6416 2.74789 17.8344C2.9385 18.0271 3.19702 18.1354 3.46658 18.1354H7.53213C7.8017 18.1354 8.06022 18.0271 8.25083 17.8344C8.44144 17.6416 8.54852 17.3801 8.54852 17.1075V13.1983C8.54852 12.9257 8.65561 12.6642 8.84622 12.4715C9.03683 12.2787 9.29535 12.1704 9.56491 12.1704H11.5977C11.8673 12.1704 12.1258 12.2787 12.3164 12.4715C12.507 12.6642 12.6141 12.9257 12.6141 13.1983V17.1075C12.6141 17.3801 12.7212 17.6416 12.9118 17.8344C13.1024 18.0271 13.3609 18.1354 13.6305 18.1354H17.696C17.9656 18.1354 18.2241 18.0271 18.4147 17.8344C18.6053 17.6416 18.7124 17.3801 18.7124 17.1075V8.18726" stroke="#B6B6B6" stroke-width="1.82114"/>
<path d="M20.1602 9.34372L10.7824 1.08136C10.6411 0.956853 10.4292 0.956853 10.2879 1.08136L0.910156 9.34372" stroke="#B6B6B6" stroke-width="1.82114" stroke-linecap="round"/>
</svg>
