<svg width="15" height="17" viewBox="0 0 15 17" fill="none" xmlns="http://www.w3.org/2000/svg">
<path fill-rule="evenodd" clip-rule="evenodd" d="M2 9.088V17H3.48911H5.11091V16.5998C5.1429 16.4443 5.11091 15.5593 5.11091 13.5004V10.31L6.8246 10.1902C9.45618 10 10.4383 9.66683 11.6461 9.088C12.5813 8.63986 13.1734 8.07499 13.5239 7.3275C14.1978 5.89036 13.9833 4.15943 13.388 2.68802C12.6977 0.98186 11.4274 0.305076 8.68309 0.0750926C8.03641 0.0209871 6.27761 -0.011223 4.77473 0.00361528H2V9.088ZM7.85609 1.09118C9.04698 1.30543 9.78758 1.8289 10.4383 2.97821C10.8314 4.0006 10.8893 5.10474 10.6364 6.29542C10.4639 7.10827 10.2507 7.54827 9.78758 8.04689C9.08083 8.80808 8.2648 8.92578 6.34308 9.02458L5.11091 9.088V4.92795V0.992736H6.20973C6.81409 0.992736 7.55498 1.03707 7.85609 1.09118Z" fill="#B6B6B6"/>
</svg>
