<svg width="26" height="17" viewBox="0 0 26 17" fill="none" xmlns="http://www.w3.org/2000/svg">
<path d="M15.3677 0.876953C18.786 0.877103 21.5571 3.64901 21.5571 7.06738C21.557 10.4856 18.7859 13.2567 15.3677 13.2568C11.9493 13.2568 9.1774 10.4857 9.17725 7.06738C9.17725 3.64892 11.9492 0.876953 15.3677 0.876953Z" stroke="#B6B6B6" stroke-width="1.75485"/>
<path d="M23.6855 16.7022C24.0312 17.0418 24.5867 17.0368 24.9263 16.6911C25.2659 16.3454 25.2609 15.7899 24.9152 15.4503L24.3004 16.0762L23.6855 16.7022ZM19.9238 11.7773C19.309 12.4033 19.309 12.4033 19.309 12.4033C19.309 12.4034 19.3091 12.4034 19.3091 12.4034C19.3092 12.4035 19.3093 12.4036 19.3095 12.4038C19.3098 12.4041 19.3103 12.4046 19.3109 12.4052C19.3122 12.4065 19.3141 12.4084 19.3167 12.4109C19.3218 12.4159 19.3294 12.4233 19.3393 12.4331C19.3593 12.4527 19.3888 12.4817 19.4269 12.5192C19.5032 12.5941 19.6141 12.703 19.7525 12.8389C20.0292 13.1108 20.4161 13.4908 20.8563 13.9232C21.7368 14.7881 22.8309 15.8628 23.6855 16.7022L24.3004 16.0762L24.9152 15.4503C24.0606 14.6109 22.9665 13.5361 22.086 12.6713C21.6458 12.2388 21.2589 11.8589 20.9822 11.587C20.8438 11.4511 20.7329 11.3422 20.6566 11.2672C20.6185 11.2298 20.589 11.2008 20.5691 11.1812C20.5591 11.1714 20.5515 11.164 20.5464 11.159C20.5438 11.1564 20.5419 11.1546 20.5406 11.1533C20.54 11.1527 20.5395 11.1522 20.5392 11.1519C20.539 11.1517 20.5389 11.1516 20.5388 11.1515C20.5388 11.1515 20.5387 11.1514 20.5387 11.1514C20.5387 11.1514 20.5387 11.1514 19.9238 11.7773Z" fill="#B6B6B6"/>
<path d="M0.890137 12.11C0.398603 12.11 0.000136733 12.5085 0.000136733 13C0.000136733 13.4915 0.398603 13.89 0.890137 13.89V13V12.11ZM0.890137 13V13.89H6.39014V13V12.11H0.890137V13Z" fill="#B6B6B6"/>
<path d="M0.890137 6.10805C0.398603 6.10805 0.000136733 6.50651 0.000136733 6.99805C0.000136733 7.48958 0.398603 7.88805 0.890137 7.88805V6.99805V6.10805ZM0.890137 6.99805V7.88805H6.39014V6.99805V6.10805H0.890137V6.99805Z" fill="#B6B6B6"/>
<path d="M0.890137 0.11C0.398603 0.11 0.000136733 0.508467 0.000136733 1C0.000136733 1.49153 0.398603 1.89 0.890137 1.89V1V0.11ZM0.890137 1V1.89H7.89014V1V0.11H0.890137V1Z" fill="#B6B6B6"/>
</svg>
