<svg width="20" height="19" viewBox="0 0 20 19" fill="none" xmlns="http://www.w3.org/2000/svg">
<path d="M11.6611 0C12.5889 0.000117541 13.3775 0.676791 13.5186 1.59375L14.1758 5.86719H12.4443L11.8271 1.85352C11.8143 1.77172 11.7439 1.71105 11.6611 1.71094H5.58105C5.47587 1.711 5.39595 1.80678 5.41504 1.91016L6.72363 8.89062C6.81071 9.35502 6.50532 9.80236 6.04102 9.88965C5.57656 9.97667 5.12914 9.67049 5.04199 9.20605L3.7334 2.22559C3.51673 1.06886 4.40417 6.70082e-05 5.58105 0H11.6611Z" fill="#B6B6B6"/>
<mask id="path-2-inside-1_175_1107" fill="white">
<path d="M16.187 6.99609C18.0487 6.99609 19.4834 8.63876 19.2319 10.4834L18.5337 15.6045L18.4819 15.8848C18.1624 17.2637 16.9291 18.2607 15.4888 18.2607H4.23779L3.97119 18.25C2.73944 18.1434 1.68883 17.3045 1.31201 16.127L1.2417 15.8701L0.0776367 10.749C-0.339491 8.91259 0.975923 7.16087 2.81299 7.00781L3.18896 8.7207H3.07373C2.20926 8.72099 1.56868 9.52413 1.76025 10.3672L2.92334 15.4873C3.06276 16.1007 3.60873 16.536 4.23779 16.5361H15.4888C16.1626 16.5361 16.7336 16.0387 16.8247 15.3711L17.5229 10.25C17.6329 9.44113 17.0034 8.7207 16.187 8.7207H8.41846C8.40895 8.64771 8.39835 8.57422 8.38232 8.50098L8.05322 6.99609H16.187Z"/>
</mask>
<path d="M16.187 6.99609C18.0487 6.99609 19.4834 8.63876 19.2319 10.4834L18.5337 15.6045L18.4819 15.8848C18.1624 17.2637 16.9291 18.2607 15.4888 18.2607H4.23779L3.97119 18.25C2.73944 18.1434 1.68883 17.3045 1.31201 16.127L1.2417 15.8701L0.0776367 10.749C-0.339491 8.91259 0.975923 7.16087 2.81299 7.00781L3.18896 8.7207H3.07373C2.20926 8.72099 1.56868 9.52413 1.76025 10.3672L2.92334 15.4873C3.06276 16.1007 3.60873 16.536 4.23779 16.5361H15.4888C16.1626 16.5361 16.7336 16.0387 16.8247 15.3711L17.5229 10.25C17.6329 9.44113 17.0034 8.7207 16.187 8.7207H8.41846C8.40895 8.64771 8.39835 8.57422 8.38232 8.50098L8.05322 6.99609H16.187Z" fill="#B6B6B6"/>
<path d="M19.2319 10.4834L20.9278 10.7146L20.9278 10.7146L19.2319 10.4834ZM18.5337 15.6045L20.2168 15.9153L20.2241 15.8757L20.2295 15.8357L18.5337 15.6045ZM18.4819 15.8848L20.1493 16.2711L20.158 16.2335L20.165 16.1956L18.4819 15.8848ZM4.23779 18.2607L4.16889 19.9709L4.20333 19.9723H4.23779V18.2607ZM3.97119 18.25L3.82357 19.9552L3.86287 19.9586L3.90228 19.9602L3.97119 18.25ZM1.31201 16.127L-0.338783 16.5789L-0.329182 16.614L-0.318099 16.6486L1.31201 16.127ZM1.2417 15.8701L-0.427266 16.2495L-0.418974 16.286L-0.409096 16.322L1.2417 15.8701ZM0.0776367 10.749L-1.59139 11.1281L-1.59133 11.1284L0.0776367 10.749ZM2.81299 7.00781L4.48473 6.64087L4.16359 5.17781L2.67088 5.30218L2.81299 7.00781ZM3.18896 8.7207V10.4322H5.31693L4.86071 8.35376L3.18896 8.7207ZM3.07373 8.7207V7.00916L3.07317 7.00916L3.07373 8.7207ZM1.76025 10.3672L3.42927 9.98805L3.42924 9.98793L1.76025 10.3672ZM2.92334 15.4873L1.25432 15.8664L1.25436 15.8666L2.92334 15.4873ZM4.23779 16.5361L4.23755 18.2477H4.23779V16.5361ZM16.8247 15.3711L18.5205 15.6025L18.5206 15.6023L16.8247 15.3711ZM17.5229 10.25L19.2188 10.4812L19.2189 10.4806L17.5229 10.25ZM8.41846 8.7207L6.72127 8.94187L6.91548 10.4322H8.41846V8.7207ZM8.38232 8.50098L6.7103 8.86663L6.71036 8.8669L8.38232 8.50098ZM8.05322 6.99609V5.28456H5.92694L6.3812 7.36175L8.05322 6.99609ZM16.187 6.99609V8.70763C17.0122 8.70763 17.6474 9.43577 17.5361 10.2522L19.2319 10.4834L20.9278 10.7146C21.3194 7.84175 19.0853 5.28456 16.187 5.28456V6.99609ZM19.2319 10.4834L17.5361 10.2522L16.8378 15.3733L18.5337 15.6045L20.2295 15.8357L20.9278 10.7146L19.2319 10.4834ZM18.5337 15.6045L16.8506 15.2937L16.7989 15.574L18.4819 15.8848L20.165 16.1956L20.2168 15.9153L18.5337 15.6045ZM18.4819 15.8848L16.8146 15.4984C16.6735 16.1072 16.1268 16.5492 15.4888 16.5492V18.2607V19.9723C17.7314 19.9723 19.6513 18.4202 20.1493 16.2711L18.4819 15.8848ZM15.4888 18.2607V16.5492H4.23779V18.2607V19.9723H15.4888V18.2607ZM4.23779 18.2607L4.3067 16.5506L4.0401 16.5398L3.97119 18.25L3.90228 19.9602L4.16889 19.9709L4.23779 18.2607ZM3.97119 18.25L4.11881 16.5448C3.57475 16.4977 3.10863 16.1257 2.94212 15.6053L1.31201 16.127L-0.318099 16.6486C0.269032 18.4834 1.90412 19.789 3.82357 19.9552L3.97119 18.25ZM1.31201 16.127L2.96281 15.675L2.89249 15.4182L1.2417 15.8701L-0.409096 16.322L-0.338783 16.5789L1.31201 16.127ZM1.2417 15.8701L2.91066 15.4907L1.7466 10.3697L0.0776367 10.749L-1.59133 11.1284L-0.427266 16.2495L1.2417 15.8701ZM0.0776367 10.749L1.74666 10.3699C1.56249 9.5591 2.14352 8.78106 2.9551 8.71344L2.81299 7.00781L2.67088 5.30218C-0.191672 5.54069 -2.24147 8.26609 -1.59139 11.1281L0.0776367 10.749ZM2.81299 7.00781L1.14125 7.37476L1.51722 9.08765L3.18896 8.7207L4.86071 8.35376L4.48473 6.64087L2.81299 7.00781ZM3.18896 8.7207V7.00916H3.07373V8.7207V10.4322H3.18896V8.7207ZM3.07373 8.7207L3.07317 7.00916C1.10998 7.00981 -0.343493 8.83325 0.091265 10.7464L1.76025 10.3672L3.42924 9.98793C3.48085 10.215 3.30855 10.4322 3.07429 10.4322L3.07373 8.7207ZM1.76025 10.3672L0.0912359 10.7463L1.25432 15.8664L2.92334 15.4873L4.59236 15.1082L3.42927 9.98805L1.76025 10.3672ZM2.92334 15.4873L1.25436 15.8666C1.5711 17.2603 2.81054 18.2475 4.23755 18.2477L4.23779 16.5361L4.23803 14.8246C4.40691 14.8246 4.55441 14.9412 4.59232 15.108L2.92334 15.4873ZM4.23779 16.5361V18.2477H15.4888V16.5361V14.8246H4.23779V16.5361ZM15.4888 16.5361V18.2477C17.0166 18.2477 18.3135 17.1199 18.5205 15.6025L16.8247 15.3711L15.1289 15.1397C15.1537 14.9576 15.3085 14.8246 15.4888 14.8246V16.5361ZM16.8247 15.3711L18.5206 15.6023L19.2188 10.4812L17.5229 10.25L15.8271 10.0188L15.1289 15.1399L16.8247 15.3711ZM17.5229 10.25L19.2189 10.4806C19.4687 8.64345 18.0395 7.00916 16.187 7.00916V8.7207V10.4322C15.9674 10.4322 15.7972 10.2388 15.827 10.0194L17.5229 10.25ZM16.187 8.7207V7.00916H8.41846V8.7207V10.4322H16.187V8.7207ZM8.41846 8.7207L10.1156 8.49954C10.1048 8.41634 10.0867 8.28307 10.0543 8.13506L8.38232 8.50098L6.71036 8.8669C6.70974 8.86406 6.71058 8.86745 6.71262 8.88027C6.71476 8.89368 6.71738 8.91206 6.72127 8.94187L8.41846 8.7207ZM8.38232 8.50098L10.0543 8.13532L9.72525 6.63044L8.05322 6.99609L6.3812 7.36175L6.7103 8.86663L8.38232 8.50098ZM8.05322 6.99609V8.70763H16.187V6.99609V5.28456H8.05322V6.99609Z" fill="#B6B6B6" mask="url(#path-2-inside-1_175_1107)"/>
</svg>
