<svg width="24" height="24" viewBox="0 0 24 24" fill="none" xmlns="http://www.w3.org/2000/svg">
<path d="M11.5 2C14.2829 2.00001 16.5469 4.26405 16.5469 7.04688C16.5469 8.69651 15.751 10.1635 14.5234 11.085C14.9025 11.2102 15.2755 11.3606 15.6406 11.5342C16.0105 11.7103 16.1679 12.1525 15.9922 12.5225C15.8162 12.8927 15.3732 13.0499 15.0029 12.874C13.9642 12.3802 12.853 12.1169 11.6982 12.0898C11.6325 12.0924 11.5664 12.0937 11.5 12.0938C11.4343 12.0938 11.3688 12.0924 11.3037 12.0898C7.53534 12.181 4.27124 14.8835 3.50098 18.583C3.45286 18.8141 3.51027 19.0514 3.6582 19.2334C3.7439 19.3388 3.9353 19.5155 4.25195 19.5156H13.3926C13.8025 19.5156 14.1348 19.8479 14.1348 20.2578C14.1348 20.6677 13.8025 21 13.3926 21H4.25195C3.57193 20.9999 2.93579 20.6974 2.50684 20.1699C2.07572 19.6398 1.90825 18.9507 2.04785 18.2803C2.49334 16.1408 3.67411 14.1937 5.37109 12.7979C6.29647 12.0368 7.35374 11.4598 8.48047 11.0889C7.25048 10.1676 6.45312 8.69839 6.45312 7.04688C6.45312 4.26404 8.71713 2 11.5 2ZM11.5 3.48438C9.53562 3.48438 7.9375 5.08249 7.9375 7.04688C7.9375 8.951 9.43909 10.5106 11.3203 10.6045C11.3801 10.6034 11.4401 10.6035 11.5 10.6035C11.5603 10.6035 11.6206 10.6034 11.6807 10.6045C13.5613 10.5099 15.0625 8.95055 15.0625 7.04688C15.0625 5.08249 13.4644 3.48438 11.5 3.48438Z" fill="black"/>
<path d="M11.5 2C14.2829 2.00001 16.5469 4.26405 16.5469 7.04688C16.5469 8.69651 15.751 10.1635 14.5234 11.085C14.9025 11.2102 15.2755 11.3606 15.6406 11.5342C16.0105 11.7103 16.1679 12.1525 15.9922 12.5225C15.8162 12.8927 15.3732 13.0499 15.0029 12.874C13.9642 12.3802 12.853 12.1169 11.6982 12.0898C11.6325 12.0924 11.5664 12.0937 11.5 12.0938C11.4343 12.0938 11.3688 12.0924 11.3037 12.0898C7.53534 12.181 4.27124 14.8835 3.50098 18.583C3.45286 18.8141 3.51027 19.0514 3.6582 19.2334C3.7439 19.3388 3.9353 19.5155 4.25195 19.5156H13.3926C13.8025 19.5156 14.1348 19.8479 14.1348 20.2578C14.1348 20.6677 13.8025 21 13.3926 21H4.25195C3.57193 20.9999 2.93579 20.6974 2.50684 20.1699C2.07572 19.6398 1.90825 18.9507 2.04785 18.2803C2.49334 16.1408 3.67411 14.1937 5.37109 12.7979C6.29647 12.0368 7.35374 11.4598 8.48047 11.0889C7.25048 10.1676 6.45312 8.69839 6.45312 7.04688C6.45312 4.26404 8.71713 2 11.5 2ZM11.5 3.48438C9.53562 3.48438 7.9375 5.08249 7.9375 7.04688C7.9375 8.951 9.43909 10.5106 11.3203 10.6045C11.3801 10.6034 11.4401 10.6035 11.5 10.6035C11.5603 10.6035 11.6206 10.6034 11.6807 10.6045C13.5613 10.5099 15.0625 8.95055 15.0625 7.04688C15.0625 5.08249 13.4644 3.48438 11.5 3.48438Z" stroke="black"/>
<path d="M17.4746 13.9492C17.8845 13.9492 18.2168 14.2815 18.2168 14.6914V16.7324H20.2578C20.6677 16.7324 21 17.0647 21 17.4746C21 17.8845 20.6677 18.2168 20.2578 18.2168H18.2168V20.2578C18.2168 20.6677 17.8845 21 17.4746 21C17.0647 21 16.7324 20.6677 16.7324 20.2578V18.2168H14.6914C14.2815 18.2168 13.9492 17.8845 13.9492 17.4746C13.9492 17.0647 14.2815 16.7324 14.6914 16.7324H16.7324V14.6914C16.7324 14.2815 17.0647 13.9492 17.4746 13.9492Z" fill="black"/>
<path d="M17.4746 13.9492C17.8845 13.9492 18.2168 14.2815 18.2168 14.6914V16.7324H20.2578C20.6677 16.7324 21 17.0647 21 17.4746C21 17.8845 20.6677 18.2168 20.2578 18.2168H18.2168V20.2578C18.2168 20.6677 17.8845 21 17.4746 21C17.0647 21 16.7324 20.6677 16.7324 20.2578V18.2168H14.6914C14.2815 18.2168 13.9492 17.8845 13.9492 17.4746C13.9492 17.0647 14.2815 16.7324 14.6914 16.7324H16.7324V14.6914C16.7324 14.2815 17.0647 13.9492 17.4746 13.9492Z" stroke="black"/>
</svg>
