<svg width="20" height="20" viewBox="0 0 20 20" fill="none" xmlns="http://www.w3.org/2000/svg">
<path d="M8.57324 0.0449219C9.15223 -0.0282302 10.6371 -0.00822514 11.1943 0.0800781C12.1553 0.232436 13.1947 0.560143 14.082 0.991211C16.6127 2.22074 18.5867 4.65789 19.2598 7.38281C19.4556 8.17571 19.5001 8.61137 19.5 9.75C19.4999 10.7292 19.4891 10.9135 19.4082 11.3682C19.1754 12.6754 18.8104 13.6598 18.1348 14.8008C17.645 15.6278 16.6349 16.7771 15.8691 17.3789C14.4891 18.4634 12.9299 19.141 11.1543 19.4258C10.5288 19.5261 8.95422 19.5249 8.3457 19.4238C6.83318 19.1726 5.56317 18.6888 4.38965 17.918C3.74227 17.4927 3.41012 17.2207 2.80566 16.6172C1.56927 15.3828 0.671923 13.8221 0.260742 12.1934C0.045263 11.3398 0 10.9168 0 9.75C1.12336e-05 8.61114 0.0446656 8.17113 0.240234 7.38281C0.488962 6.38031 0.996448 5.23525 1.57324 4.37598C2.49112 3.00862 3.72817 1.8856 5.16113 1.11719C6.1218 0.602041 7.4374 0.188403 8.57324 0.0449219ZM10.8779 1.62598C9.53018 1.44124 8.17457 1.58944 6.91211 2.06055C5.61218 2.5457 4.55086 3.2628 3.63672 4.27246C3.12451 4.83822 2.73136 5.41897 2.35938 6.16016C1.75241 7.36977 1.44665 8.93984 1.55469 10.29C1.67803 11.831 2.09344 13.0532 2.91797 14.3037C4.01232 15.9633 5.75081 17.1861 7.75 17.7021C8.42464 17.8763 8.96258 17.9404 9.75 17.9404C10.5374 17.9404 11.0754 17.8763 11.75 17.7021C13.7608 17.1831 15.4854 15.9706 16.583 14.3037C17.5122 12.8925 17.9541 11.4242 17.9541 9.75C17.954 8.04856 17.5216 6.62651 16.5615 5.17188C15.314 3.28186 13.1612 1.93908 10.8779 1.62598ZM9.04395 7.49121L10.0596 7.50098L10.2109 7.62207C10.2944 7.68834 10.4031 7.82049 10.4521 7.91602L10.541 8.08984V13.4795H10.998C11.3753 13.4795 11.4808 13.4928 11.6084 13.5576C12.1589 13.8377 12.1618 14.637 11.6133 14.9258L11.4385 15.0176H8.06152L7.88672 14.9258C7.3383 14.637 7.34113 13.8377 7.8916 13.5576C8.01922 13.4927 8.12466 13.4795 8.50195 13.4795H8.95898V9.02051H8.5C7.97683 9.02051 7.83956 8.97712 7.6543 8.75293C7.34641 8.38034 7.45131 7.81071 7.87207 7.57031C8.02551 7.4826 8.05166 7.4812 9.04395 7.49121ZM9.52539 3.76953C9.87428 3.68144 10.3437 3.86058 10.5518 4.16211C10.652 4.30741 10.6763 4.38712 10.6914 4.62207C10.7137 4.96842 10.6589 5.15048 10.4707 5.3584C10.3036 5.54294 10.1785 5.61275 9.91113 5.66992C9.51179 5.75527 9.06853 5.52339 8.87695 5.12891C8.804 4.97862 8.79332 4.90231 8.80859 4.63965C8.8237 4.37942 8.84521 4.30263 8.93945 4.16699C9.05762 3.99689 9.3137 3.82312 9.52539 3.76953Z" fill="black"/>
<path d="M8.57324 0.0449219C9.15223 -0.0282302 10.6371 -0.00822514 11.1943 0.0800781C12.1553 0.232436 13.1947 0.560143 14.082 0.991211C16.6127 2.22074 18.5867 4.65789 19.2598 7.38281C19.4556 8.17571 19.5001 8.61137 19.5 9.75C19.4999 10.7292 19.4891 10.9135 19.4082 11.3682C19.1754 12.6754 18.8104 13.6598 18.1348 14.8008C17.645 15.6278 16.6349 16.7771 15.8691 17.3789C14.4891 18.4634 12.9299 19.141 11.1543 19.4258C10.5288 19.5261 8.95422 19.5249 8.3457 19.4238C6.83318 19.1726 5.56317 18.6888 4.38965 17.918C3.74227 17.4927 3.41012 17.2207 2.80566 16.6172C1.56927 15.3828 0.671923 13.8221 0.260742 12.1934C0.045263 11.3398 0 10.9168 0 9.75C1.12336e-05 8.61114 0.0446656 8.17113 0.240234 7.38281C0.488962 6.38031 0.996448 5.23525 1.57324 4.37598C2.49112 3.00862 3.72817 1.8856 5.16113 1.11719C6.1218 0.602041 7.4374 0.188403 8.57324 0.0449219ZM10.8779 1.62598C9.53018 1.44124 8.17457 1.58944 6.91211 2.06055C5.61218 2.5457 4.55086 3.2628 3.63672 4.27246C3.12451 4.83822 2.73136 5.41897 2.35938 6.16016C1.75241 7.36977 1.44665 8.93984 1.55469 10.29C1.67803 11.831 2.09344 13.0532 2.91797 14.3037C4.01232 15.9633 5.75081 17.1861 7.75 17.7021C8.42464 17.8763 8.96258 17.9404 9.75 17.9404C10.5374 17.9404 11.0754 17.8763 11.75 17.7021C13.7608 17.1831 15.4854 15.9706 16.583 14.3037C17.5122 12.8925 17.9541 11.4242 17.9541 9.75C17.954 8.04856 17.5216 6.62651 16.5615 5.17188C15.314 3.28186 13.1612 1.93908 10.8779 1.62598ZM9.04395 7.49121L10.0596 7.50098L10.2109 7.62207C10.2944 7.68834 10.4031 7.82049 10.4521 7.91602L10.541 8.08984V13.4795H10.998C11.3753 13.4795 11.4808 13.4928 11.6084 13.5576C12.1589 13.8377 12.1618 14.637 11.6133 14.9258L11.4385 15.0176H8.06152L7.88672 14.9258C7.3383 14.637 7.34113 13.8377 7.8916 13.5576C8.01922 13.4927 8.12466 13.4795 8.50195 13.4795H8.95898V9.02051H8.5C7.97683 9.02051 7.83956 8.97712 7.6543 8.75293C7.34641 8.38034 7.45131 7.81071 7.87207 7.57031C8.02551 7.4826 8.05166 7.4812 9.04395 7.49121ZM9.52539 3.76953C9.87428 3.68144 10.3437 3.86058 10.5518 4.16211C10.652 4.30741 10.6763 4.38712 10.6914 4.62207C10.7137 4.96842 10.6589 5.15048 10.4707 5.3584C10.3036 5.54294 10.1785 5.61275 9.91113 5.66992C9.51179 5.75527 9.06853 5.52339 8.87695 5.12891C8.804 4.97862 8.79332 4.90231 8.80859 4.63965C8.8237 4.37942 8.84521 4.30263 8.93945 4.16699C9.05762 3.99689 9.3137 3.82312 9.52539 3.76953Z" stroke="black"/>
</svg>
